<svg width="485" height="816" viewBox="0 0 485 816" fill="none" xmlns="http://www.w3.org/2000/svg">
<path d="M463.292 275.102H436.017V249.037C436.017 205.949 418.804 165.856 387.436 135.906L387.435 135.905C356.428 106.316 314.997 90.0475 270.981 90.0475H237.593L232.452 42.8156L232.432 42.6385L232.397 42.4639L232.235 41.6505C228.585 20.6925 208.227 4 186.834 4H78.4968H74.4968V8V33.9179V37.9179H78.4968H186.834C189.181 37.9179 191.959 38.9819 194.368 40.8949C196.72 42.7628 198.281 45.0883 198.777 47.1842L203.469 90.188C115.895 94.0719 48.2333 162.318 48.2333 248.864V274.929H20.959C11.6656 274.929 4 282.594 4 291.888V364.976C4 374.27 11.6656 381.935 20.959 381.935H49.8186L85.903 747.054C85.9084 747.243 85.9253 747.529 85.9767 747.837C86.0074 748.021 86.0706 748.354 86.2206 748.754C92.12 784.139 123.415 812 158.151 812H324.026C361.431 812 393.119 783.554 396.259 747.213C396.26 747.2 396.261 747.188 396.262 747.176L434.412 381.935H463.292C472.585 381.935 480.251 374.27 480.251 364.976V291.888C480.251 282.732 472.55 275.102 463.292 275.102ZM362.381 743.991L362.359 744.202V744.415V744.416V744.417V744.418V744.419V744.42V744.421V744.422V744.423V744.424V744.425V744.426V744.427V744.428V744.429V744.43V744.43V744.431V744.432V744.433V744.434V744.435V744.436V744.437V744.438V744.439V744.44V744.441V744.442V744.443V744.443V744.444V744.445V744.446V744.447V744.448V744.449V744.45V744.451V744.451V744.452V744.453V744.454V744.455V744.456V744.457V744.457V744.458V744.459V744.46V744.461V744.462V744.462V744.463V744.464V744.465V744.466V744.466V744.467V744.468V744.469V744.47V744.471V744.471V744.472V744.473V744.474V744.474V744.475V744.476V744.477V744.478V744.478V744.479V744.48V744.481V744.481V744.482V744.483V744.484V744.484V744.485V744.486V744.487V744.487V744.488V744.489V744.49V744.49V744.491V744.492V744.492V744.493V744.494V744.495V744.495V744.496V744.497V744.497V744.498V744.499V744.499V744.5V744.501V744.502V744.502V744.503V744.504V744.504V744.505V744.506V744.506V744.507V744.508V744.508V744.509V744.51V744.51V744.511V744.512V744.512V744.513V744.513V744.514V744.515V744.515V744.516V744.517V744.517V744.518V744.519V744.519V744.52V744.52V744.521V744.522V744.522V744.523V744.524V744.524V744.525V744.525V744.526V744.527V744.527V744.528V744.528V744.529V744.53V744.53V744.531V744.531V744.532V744.533V744.533V744.534V744.534V744.535V744.535V744.536V744.537V744.537V744.538V744.538V744.539V744.539V744.54V744.541V744.541V744.542V744.542V744.543V744.543V744.544V744.545V744.545V744.546V744.546V744.547V744.547V744.548V744.548V744.549V744.55V744.55V744.551V744.551V744.552V744.552V744.553V744.553V744.554V744.554V744.555V744.556V744.556V744.557V744.557V744.558V744.558V744.559V744.559V744.56V744.56V744.561V744.561V744.562V744.562V744.563V744.563V744.564V744.565V744.565V744.566V744.566V744.567V744.567V744.568V744.568V744.569V744.569V744.57V744.57V744.571V744.571V744.572V744.572V744.573V744.573V744.574V744.574V744.575V744.575V744.576V744.576V744.577V744.577V744.578V744.578V744.579V744.579V744.58V744.58V744.581V744.581V744.582V744.582V744.583V744.583V744.584V744.584V744.585V744.586V744.586V744.586V744.587V744.588V744.588V744.589V744.589V744.59V744.59V744.591V744.591V744.592V744.592C360.732 763.384 344.145 778.255 324.026 778.255H158.151C140.136 778.255 123.007 763.184 119.613 743.536L116.429 711.093H365.884L362.381 743.991ZM389.908 480.942L369.322 677.175H113.049L93.625 480.942H389.908ZM83.9513 382.281H400.278L393.51 447.197H90.4122L83.9513 382.281ZM446.333 348.19H37.9179V309.019H65.1922H419.058H446.333V348.19Z" fill="black" stroke="white" stroke-width="8"/>
<path d="M408.5 279H79.4998C65.4672 249.169 72.3814 201.114 98.5 164C119.224 134.552 146.458 112.362 224.5 109C400.9 101.4 420.666 219.167 408.5 279Z" fill="white"/>
<path d="M102.5 739.5L73 374.5L59.5 254.5H421.5L384 766L347 794.5H131L102.5 739.5Z" fill="#614485" stroke="black"/>
<path d="M459 298H29V363H459V298Z" fill="#D9D9D9"/>
<path d="M402 465.5H77.5L101 695.5L382.5 699L402 465.5Z" fill="#BE9F88" stroke="black"/>
<path d="M463.292 279.102H432.017V249.037C432.017 207.05 415.257 168 384.674 138.799C354.436 109.944 314.004 94.0475 270.981 94.0475H234.004L228.475 43.2484L228.302 42.3845C225.019 23.378 206.359 8 186.834 8H78.4968V33.9179H186.834C193.745 33.9179 201.348 39.9654 202.73 46.5313L207.914 94.0475C120.311 95.7754 52.2333 163.162 52.2333 248.864V278.929H20.959C13.8747 278.929 8 284.803 8 291.888V364.976C8 372.061 13.8747 377.935 20.959 377.935H53.4428L89.9006 746.834C89.9006 747.007 89.9006 747.352 90.0734 747.525C95.4298 781.391 125.322 808 158.151 808H324.026C359.447 808 389.339 781.045 392.276 746.834L430.808 377.935H463.292C470.376 377.935 476.251 372.061 476.251 364.976V291.888C476.251 284.976 470.376 279.102 463.292 279.102ZM270.808 120.138C346.661 120.138 406.099 176.812 406.099 249.037V279.102H253.702L236.596 120.138H270.808ZM78.1512 249.037C78.1512 176.812 136.38 120.311 210.678 120.138L227.784 279.102H78.1512V249.037ZM366.359 744.415C366.359 744.588 366.359 744.588 366.359 744.76C364.631 765.84 346.143 782.255 324.026 782.255H158.151C137.935 782.255 119.274 765.495 115.646 744.069L112.017 707.093H370.333L366.359 744.415ZM372.924 681.175H109.425L89.2095 476.942H394.35L372.924 681.175ZM397.115 451.197H86.7905L79.5335 378.281H404.717L397.115 451.197ZM450.333 352.19H33.9179V305.019H65.1922H419.058H450.333V352.19Z" fill="black"/>
<path d="M238.207 634C268.994 634 293.089 607.396 293.089 573.5C293.089 539.469 268.994 513 238.207 513C207.42 513 183.325 539.604 183.325 573.5C183.325 607.396 207.42 634 238.207 634ZM238.207 533.122C256.501 533.122 270.779 550.812 270.779 573.365C270.779 592.541 260.665 608.071 246.536 612.528C251.147 601.859 256.352 586.734 255.014 575.796C253.526 562.291 241.033 544.33 233.002 533.662C234.786 533.392 236.422 533.122 238.207 533.122ZM214.708 545.411C222.888 555.944 231.96 569.989 232.853 578.091C233.745 584.979 228.688 599.023 223.78 609.827C212.923 603.21 205.635 589.57 205.635 573.5C205.635 562.426 209.056 552.568 214.708 545.411Z" fill="#008546"/>
</svg>
